<mxfile host="app.diagrams.net" modified="2023-03-01T20:01:29.328Z" agent="5.0 (Windows NT 10.0; Win64; x64) AppleWebKit/537.36 (KHTML, like Gecko) Chrome/110.0.0.0 Safari/537.36" etag="jBwsWrfpZK4JgsGcHR-o" version="20.8.23" type="github" pages="4">
  <diagram name="Page-1" id="2YBvvXClWsGukQMizWep">
    <mxGraphModel dx="1235" dy="582" grid="1" gridSize="10" guides="1" tooltips="1" connect="1" arrows="1" fold="1" page="1" pageScale="1" pageWidth="1169" pageHeight="827" math="0" shadow="0">
      <root>
        <mxCell id="0" />
        <mxCell id="1" parent="0" />
        <mxCell id="aM9ryv3xv72pqoxQDRHE-5" value="Call Center Server" style="shape=umlLifeline;perimeter=lifelinePerimeter;whiteSpace=wrap;html=1;container=0;dropTarget=0;collapsible=0;recursiveResize=0;outlineConnect=0;portConstraint=eastwest;newEdgeStyle={&quot;edgeStyle&quot;:&quot;elbowEdgeStyle&quot;,&quot;elbow&quot;:&quot;vertical&quot;,&quot;curved&quot;:0,&quot;rounded&quot;:0};" parent="1" vertex="1">
          <mxGeometry x="690" y="40" width="100" height="770" as="geometry" />
        </mxCell>
        <mxCell id="aM9ryv3xv72pqoxQDRHE-6" value="" style="html=1;points=[];perimeter=orthogonalPerimeter;outlineConnect=0;targetShapes=umlLifeline;portConstraint=eastwest;newEdgeStyle={&quot;edgeStyle&quot;:&quot;elbowEdgeStyle&quot;,&quot;elbow&quot;:&quot;vertical&quot;,&quot;curved&quot;:0,&quot;rounded&quot;:0};" parent="aM9ryv3xv72pqoxQDRHE-5" vertex="1">
          <mxGeometry x="45" y="80" width="10" height="650" as="geometry" />
        </mxCell>
        <mxCell id="DD67O1B9OSoniIuFbWWG-1" value="Client" style="shape=umlLifeline;perimeter=lifelinePerimeter;whiteSpace=wrap;html=1;container=0;dropTarget=0;collapsible=0;recursiveResize=0;outlineConnect=0;portConstraint=eastwest;newEdgeStyle={&quot;edgeStyle&quot;:&quot;elbowEdgeStyle&quot;,&quot;elbow&quot;:&quot;vertical&quot;,&quot;curved&quot;:0,&quot;rounded&quot;:0};" parent="1" vertex="1">
          <mxGeometry x="870" y="45" width="100" height="770" as="geometry" />
        </mxCell>
        <mxCell id="DD67O1B9OSoniIuFbWWG-2" value="" style="html=1;points=[];perimeter=orthogonalPerimeter;outlineConnect=0;targetShapes=umlLifeline;portConstraint=eastwest;newEdgeStyle={&quot;edgeStyle&quot;:&quot;elbowEdgeStyle&quot;,&quot;elbow&quot;:&quot;vertical&quot;,&quot;curved&quot;:0,&quot;rounded&quot;:0};" parent="DD67O1B9OSoniIuFbWWG-1" vertex="1">
          <mxGeometry x="45" y="80" width="10" height="650" as="geometry" />
        </mxCell>
        <mxCell id="DD67O1B9OSoniIuFbWWG-3" value="INVITE" style="html=1;verticalAlign=bottom;endArrow=block;edgeStyle=elbowEdgeStyle;elbow=vertical;curved=0;rounded=0;" parent="1" source="DD67O1B9OSoniIuFbWWG-2" target="aM9ryv3xv72pqoxQDRHE-6" edge="1">
          <mxGeometry x="0.0032" relative="1" as="geometry">
            <mxPoint x="245" y="140" as="sourcePoint" />
            <Array as="points">
              <mxPoint x="870" y="150" />
              <mxPoint x="830" y="170" />
              <mxPoint x="330" y="140" />
            </Array>
            <mxPoint x="760" y="130" as="targetPoint" />
            <mxPoint as="offset" />
          </mxGeometry>
        </mxCell>
        <mxCell id="DD67O1B9OSoniIuFbWWG-4" value="200 OK" style="html=1;verticalAlign=bottom;endArrow=block;edgeStyle=elbowEdgeStyle;elbow=vertical;curved=0;rounded=0;" parent="1" source="aM9ryv3xv72pqoxQDRHE-6" target="DD67O1B9OSoniIuFbWWG-2" edge="1">
          <mxGeometry x="0.0032" relative="1" as="geometry">
            <mxPoint x="750.5" y="199" as="sourcePoint" />
            <Array as="points">
              <mxPoint x="860" y="190" />
              <mxPoint x="840" y="200" />
              <mxPoint x="861" y="159" />
              <mxPoint x="871" y="159" />
              <mxPoint x="861" y="149" />
              <mxPoint x="341" y="159" />
            </Array>
            <mxPoint x="900" y="210" as="targetPoint" />
            <mxPoint as="offset" />
          </mxGeometry>
        </mxCell>
        <mxCell id="DD67O1B9OSoniIuFbWWG-5" value="ACK" style="html=1;verticalAlign=bottom;endArrow=block;edgeStyle=elbowEdgeStyle;elbow=vertical;curved=0;rounded=0;" parent="1" source="DD67O1B9OSoniIuFbWWG-2" target="aM9ryv3xv72pqoxQDRHE-6" edge="1">
          <mxGeometry x="0.0032" relative="1" as="geometry">
            <mxPoint x="900" y="240" as="sourcePoint" />
            <Array as="points">
              <mxPoint x="850" y="230" />
              <mxPoint x="870" y="220" />
              <mxPoint x="340" y="250" />
            </Array>
            <mxPoint x="770" y="240" as="targetPoint" />
            <mxPoint as="offset" />
          </mxGeometry>
        </mxCell>
        <mxCell id="DD67O1B9OSoniIuFbWWG-11" value="Ant Media Server" style="shape=umlLifeline;perimeter=lifelinePerimeter;whiteSpace=wrap;html=1;container=0;dropTarget=0;collapsible=0;recursiveResize=0;outlineConnect=0;portConstraint=eastwest;newEdgeStyle={&quot;edgeStyle&quot;:&quot;elbowEdgeStyle&quot;,&quot;elbow&quot;:&quot;vertical&quot;,&quot;curved&quot;:0,&quot;rounded&quot;:0};" parent="1" vertex="1">
          <mxGeometry x="80" y="40" width="100" height="770" as="geometry" />
        </mxCell>
        <mxCell id="DD67O1B9OSoniIuFbWWG-12" value="" style="html=1;points=[];perimeter=orthogonalPerimeter;outlineConnect=0;targetShapes=umlLifeline;portConstraint=eastwest;newEdgeStyle={&quot;edgeStyle&quot;:&quot;elbowEdgeStyle&quot;,&quot;elbow&quot;:&quot;vertical&quot;,&quot;curved&quot;:0,&quot;rounded&quot;:0};" parent="DD67O1B9OSoniIuFbWWG-11" vertex="1">
          <mxGeometry x="45" y="160" width="10" height="540" as="geometry" />
        </mxCell>
        <mxCell id="DD67O1B9OSoniIuFbWWG-13" value="DTMF tones" style="html=1;verticalAlign=bottom;endArrow=block;edgeStyle=elbowEdgeStyle;elbow=vertical;curved=0;rounded=0;" parent="1" source="DD67O1B9OSoniIuFbWWG-2" target="aM9ryv3xv72pqoxQDRHE-6" edge="1">
          <mxGeometry x="0.0032" relative="1" as="geometry">
            <mxPoint x="900" y="370" as="sourcePoint" />
            <Array as="points">
              <mxPoint x="875" y="370" />
              <mxPoint x="835" y="390" />
              <mxPoint x="335" y="360" />
            </Array>
            <mxPoint x="760" y="370" as="targetPoint" />
            <mxPoint as="offset" />
          </mxGeometry>
        </mxCell>
        <mxCell id="DD67O1B9OSoniIuFbWWG-14" value="INVITE" style="html=1;verticalAlign=bottom;endArrow=block;edgeStyle=elbowEdgeStyle;elbow=vertical;curved=0;rounded=0;" parent="1" source="aM9ryv3xv72pqoxQDRHE-5" target="DD67O1B9OSoniIuFbWWG-26" edge="1">
          <mxGeometry x="0.0032" relative="1" as="geometry">
            <mxPoint x="720" y="410" as="sourcePoint" />
            <Array as="points">
              <mxPoint x="680" y="410" />
              <mxPoint x="650" y="430" />
              <mxPoint x="600" y="340" />
              <mxPoint x="670" y="370" />
              <mxPoint x="920" y="310" />
              <mxPoint x="840" y="160" />
              <mxPoint x="340" y="130" />
            </Array>
            <mxPoint x="430" y="410" as="targetPoint" />
            <mxPoint as="offset" />
          </mxGeometry>
        </mxCell>
        <mxCell id="DD67O1B9OSoniIuFbWWG-15" value="Synchronization of provisioned media tree or standalone configuration" style="shape=card;whiteSpace=wrap;html=1;" parent="1" vertex="1">
          <mxGeometry x="335" y="270" width="80" height="100" as="geometry" />
        </mxCell>
        <mxCell id="DD67O1B9OSoniIuFbWWG-18" value="" style="endArrow=classic;startArrow=classic;html=1;rounded=0;" parent="1" source="DD67O1B9OSoniIuFbWWG-27" target="aM9ryv3xv72pqoxQDRHE-6" edge="1">
          <mxGeometry width="50" height="50" relative="1" as="geometry">
            <mxPoint x="450" y="300" as="sourcePoint" />
            <mxPoint x="740" y="300" as="targetPoint" />
            <Array as="points">
              <mxPoint x="500" y="300" />
            </Array>
          </mxGeometry>
        </mxCell>
        <mxCell id="DD67O1B9OSoniIuFbWWG-22" value="RTP/RTCP" style="endArrow=classic;startArrow=classic;html=1;rounded=0;strokeColor=default;dashed=1;" parent="1" source="aM9ryv3xv72pqoxQDRHE-6" target="DD67O1B9OSoniIuFbWWG-2" edge="1">
          <mxGeometry width="50" height="50" relative="1" as="geometry">
            <mxPoint x="760" y="280" as="sourcePoint" />
            <mxPoint x="900" y="280" as="targetPoint" />
            <Array as="points">
              <mxPoint x="840" y="280" />
            </Array>
          </mxGeometry>
        </mxCell>
        <mxCell id="DD67O1B9OSoniIuFbWWG-24" value="Create SIP&lt;br&gt;/RTP sessions" style="shape=card;whiteSpace=wrap;html=1;" parent="1" vertex="1">
          <mxGeometry x="335" y="380" width="80" height="100" as="geometry" />
        </mxCell>
        <mxCell id="DD67O1B9OSoniIuFbWWG-25" value="RTP/RTCP" style="endArrow=classic;startArrow=classic;html=1;rounded=0;strokeColor=default;dashed=1;" parent="1" source="DD67O1B9OSoniIuFbWWG-26" target="DD67O1B9OSoniIuFbWWG-1" edge="1">
          <mxGeometry width="50" height="50" relative="1" as="geometry">
            <mxPoint x="430" y="790" as="sourcePoint" />
            <mxPoint x="900.5" y="790" as="targetPoint" />
            <Array as="points">
              <mxPoint x="675.5" y="790" />
            </Array>
          </mxGeometry>
        </mxCell>
        <mxCell id="DD67O1B9OSoniIuFbWWG-26" value="SIP/Streaming Converter Service" style="shape=umlLifeline;perimeter=lifelinePerimeter;whiteSpace=wrap;html=1;container=0;dropTarget=0;collapsible=0;recursiveResize=0;outlineConnect=0;portConstraint=eastwest;newEdgeStyle={&quot;edgeStyle&quot;:&quot;elbowEdgeStyle&quot;,&quot;elbow&quot;:&quot;vertical&quot;,&quot;curved&quot;:0,&quot;rounded&quot;:0};" parent="1" vertex="1">
          <mxGeometry x="370" y="28" width="100" height="770" as="geometry" />
        </mxCell>
        <mxCell id="DD67O1B9OSoniIuFbWWG-27" value="" style="html=1;points=[];perimeter=orthogonalPerimeter;outlineConnect=0;targetShapes=umlLifeline;portConstraint=eastwest;newEdgeStyle={&quot;edgeStyle&quot;:&quot;elbowEdgeStyle&quot;,&quot;elbow&quot;:&quot;vertical&quot;,&quot;curved&quot;:0,&quot;rounded&quot;:0};" parent="DD67O1B9OSoniIuFbWWG-26" vertex="1">
          <mxGeometry x="45" y="170" width="10" height="530" as="geometry" />
        </mxCell>
        <mxCell id="DD67O1B9OSoniIuFbWWG-28" value="Create Stream&lt;br&gt;POST https://{domain:port}/{application}/rest/v2/broadcasts/create?autoStart=false&lt;br&gt;{ &quot;type&quot;:&quot;streamSource&quot;, &quot;streamUrl&quot;:&quot;YOUR_STREAM_SOURCE_URL&quot;}" style="html=1;verticalAlign=bottom;endArrow=block;edgeStyle=elbowEdgeStyle;elbow=vertical;curved=0;rounded=0;" parent="1" edge="1">
          <mxGeometry x="0.0032" relative="1" as="geometry">
            <mxPoint x="415.0000000000002" y="660" as="sourcePoint" />
            <Array as="points">
              <mxPoint x="290" y="660" />
              <mxPoint x="390" y="630" />
              <mxPoint x="360" y="650" />
              <mxPoint x="310" y="560" />
              <mxPoint x="380" y="590" />
              <mxPoint x="630" y="530" />
              <mxPoint x="550" y="380" />
              <mxPoint x="50" y="350" />
            </Array>
            <mxPoint x="135" y="660" as="targetPoint" />
            <mxPoint as="offset" />
          </mxGeometry>
        </mxCell>
        <mxCell id="DD67O1B9OSoniIuFbWWG-29" value="" style="endArrow=classic;html=1;rounded=0;strokeColor=default;" parent="1" source="DD67O1B9OSoniIuFbWWG-27" target="aM9ryv3xv72pqoxQDRHE-5" edge="1">
          <mxGeometry width="50" height="50" relative="1" as="geometry">
            <mxPoint x="425.0000000000002" y="440" as="sourcePoint" />
            <mxPoint x="720" y="440" as="targetPoint" />
            <Array as="points">
              <mxPoint x="650" y="440" />
            </Array>
          </mxGeometry>
        </mxCell>
        <mxCell id="DD67O1B9OSoniIuFbWWG-31" value="200 OK" style="edgeLabel;html=1;align=center;verticalAlign=middle;resizable=0;points=[];" parent="DD67O1B9OSoniIuFbWWG-29" vertex="1" connectable="0">
          <mxGeometry x="0.0152" y="4" relative="1" as="geometry">
            <mxPoint y="-6" as="offset" />
          </mxGeometry>
        </mxCell>
        <mxCell id="DD67O1B9OSoniIuFbWWG-33" value="ACK" style="html=1;verticalAlign=bottom;endArrow=block;edgeStyle=elbowEdgeStyle;elbow=vertical;curved=0;rounded=0;" parent="1" source="aM9ryv3xv72pqoxQDRHE-6" target="DD67O1B9OSoniIuFbWWG-26" edge="1">
          <mxGeometry x="0.0032" relative="1" as="geometry">
            <mxPoint x="720" y="480" as="sourcePoint" />
            <Array as="points">
              <mxPoint x="680" y="480" />
              <mxPoint x="650" y="500" />
              <mxPoint x="600" y="410" />
              <mxPoint x="670" y="440" />
              <mxPoint x="920" y="380" />
              <mxPoint x="840" y="230" />
              <mxPoint x="340" y="200" />
            </Array>
            <mxPoint x="450" y="480" as="targetPoint" />
            <mxPoint as="offset" />
          </mxGeometry>
        </mxCell>
        <mxCell id="DD67O1B9OSoniIuFbWWG-34" value="Stream" style="endArrow=classic;startArrow=classic;html=1;rounded=0;strokeColor=default;dashed=1;" parent="1" edge="1">
          <mxGeometry x="-0.0035" width="50" height="50" relative="1" as="geometry">
            <mxPoint x="139.75" y="690" as="sourcePoint" />
            <mxPoint x="415.0000000000002" y="690" as="targetPoint" />
            <Array as="points">
              <mxPoint x="385.25" y="690" />
            </Array>
            <mxPoint as="offset" />
          </mxGeometry>
        </mxCell>
        <mxCell id="DD67O1B9OSoniIuFbWWG-35" value="Proxy live stream data to RTP session(ffmpeg lib)" style="shape=card;whiteSpace=wrap;html=1;" parent="1" vertex="1">
          <mxGeometry x="335" y="700" width="80" height="100" as="geometry" />
        </mxCell>
        <mxCell id="DD67O1B9OSoniIuFbWWG-36" value="RTP/RTCP" style="endArrow=classic;startArrow=classic;html=1;rounded=0;strokeColor=default;dashed=1;" parent="1" source="DD67O1B9OSoniIuFbWWG-26" target="DD67O1B9OSoniIuFbWWG-2" edge="1">
          <mxGeometry width="50" height="50" relative="1" as="geometry">
            <mxPoint x="450" y="510" as="sourcePoint" />
            <mxPoint x="890" y="510" as="targetPoint" />
            <Array as="points">
              <mxPoint x="675.5" y="510" />
            </Array>
          </mxGeometry>
        </mxCell>
        <mxCell id="DD67O1B9OSoniIuFbWWG-37" value="NOTIFY DTMF Digits" style="html=1;verticalAlign=bottom;endArrow=block;edgeStyle=elbowEdgeStyle;elbow=vertical;curved=0;rounded=0;" parent="1" source="aM9ryv3xv72pqoxQDRHE-6" target="DD67O1B9OSoniIuFbWWG-26" edge="1">
          <mxGeometry x="0.0032" relative="1" as="geometry">
            <mxPoint x="720" y="550" as="sourcePoint" />
            <Array as="points">
              <mxPoint x="680" y="550" />
              <mxPoint x="650" y="570" />
              <mxPoint x="600" y="480" />
              <mxPoint x="670" y="510" />
              <mxPoint x="920" y="450" />
              <mxPoint x="840" y="300" />
              <mxPoint x="340" y="270" />
            </Array>
            <mxPoint x="450" y="550" as="targetPoint" />
            <mxPoint as="offset" />
          </mxGeometry>
        </mxCell>
        <mxCell id="DD67O1B9OSoniIuFbWWG-38" value="" style="endArrow=classic;html=1;rounded=0;strokeColor=default;" parent="1" source="DD67O1B9OSoniIuFbWWG-26" target="aM9ryv3xv72pqoxQDRHE-6" edge="1">
          <mxGeometry width="50" height="50" relative="1" as="geometry">
            <mxPoint x="450" y="580" as="sourcePoint" />
            <mxPoint x="720" y="580" as="targetPoint" />
            <Array as="points">
              <mxPoint x="650" y="580" />
            </Array>
          </mxGeometry>
        </mxCell>
        <mxCell id="DD67O1B9OSoniIuFbWWG-39" value="200 OK" style="edgeLabel;html=1;align=center;verticalAlign=middle;resizable=0;points=[];" parent="DD67O1B9OSoniIuFbWWG-38" vertex="1" connectable="0">
          <mxGeometry x="0.0152" y="4" relative="1" as="geometry">
            <mxPoint y="-6" as="offset" />
          </mxGeometry>
        </mxCell>
        <mxCell id="dTiGiV_YrJ4YOTZFg8h_-1" value="Actor" style="shape=umlActor;verticalLabelPosition=bottom;verticalAlign=top;html=1;outlineConnect=0;" parent="1" vertex="1">
          <mxGeometry x="930" y="90" width="30" height="60" as="geometry" />
        </mxCell>
      </root>
    </mxGraphModel>
  </diagram>
  <diagram name="Kopyası Page-1" id="iPNiJZSY_i6xvGlJ2TiY">
    <mxGraphModel dx="1235" dy="578" grid="1" gridSize="10" guides="1" tooltips="1" connect="1" arrows="1" fold="1" page="1" pageScale="1" pageWidth="1169" pageHeight="827" math="0" shadow="0">
      <root>
        <mxCell id="HNETgIzHI6axtzU-nUiD-0" />
        <mxCell id="HNETgIzHI6axtzU-nUiD-1" parent="HNETgIzHI6axtzU-nUiD-0" />
        <mxCell id="HNETgIzHI6axtzU-nUiD-2" value="Call Center Server" style="shape=umlLifeline;perimeter=lifelinePerimeter;whiteSpace=wrap;html=1;container=0;dropTarget=0;collapsible=0;recursiveResize=0;outlineConnect=0;portConstraint=eastwest;newEdgeStyle={&quot;edgeStyle&quot;:&quot;elbowEdgeStyle&quot;,&quot;elbow&quot;:&quot;vertical&quot;,&quot;curved&quot;:0,&quot;rounded&quot;:0};" vertex="1" parent="HNETgIzHI6axtzU-nUiD-1">
          <mxGeometry x="690" y="40" width="100" height="770" as="geometry" />
        </mxCell>
        <mxCell id="HNETgIzHI6axtzU-nUiD-4" value="Client" style="shape=umlLifeline;perimeter=lifelinePerimeter;whiteSpace=wrap;html=1;container=0;dropTarget=0;collapsible=0;recursiveResize=0;outlineConnect=0;portConstraint=eastwest;newEdgeStyle={&quot;edgeStyle&quot;:&quot;elbowEdgeStyle&quot;,&quot;elbow&quot;:&quot;vertical&quot;,&quot;curved&quot;:0,&quot;rounded&quot;:0};" vertex="1" parent="HNETgIzHI6axtzU-nUiD-1">
          <mxGeometry x="870" y="45" width="100" height="770" as="geometry" />
        </mxCell>
        <mxCell id="HNETgIzHI6axtzU-nUiD-6" value="INVITE" style="html=1;verticalAlign=bottom;endArrow=block;edgeStyle=elbowEdgeStyle;elbow=vertical;curved=0;rounded=0;" edge="1" parent="HNETgIzHI6axtzU-nUiD-1">
          <mxGeometry x="0.0032" relative="1" as="geometry">
            <mxPoint x="915" y="150" as="sourcePoint" />
            <Array as="points">
              <mxPoint x="870" y="150" />
              <mxPoint x="830" y="170" />
              <mxPoint x="330" y="140" />
            </Array>
            <mxPoint x="745" y="150" as="targetPoint" />
            <mxPoint as="offset" />
          </mxGeometry>
        </mxCell>
        <mxCell id="HNETgIzHI6axtzU-nUiD-7" value="200 OK" style="html=1;verticalAlign=bottom;endArrow=block;edgeStyle=elbowEdgeStyle;elbow=vertical;curved=0;rounded=0;" edge="1" parent="HNETgIzHI6axtzU-nUiD-1">
          <mxGeometry x="0.0032" relative="1" as="geometry">
            <mxPoint x="745" y="190" as="sourcePoint" />
            <Array as="points">
              <mxPoint x="860" y="190" />
              <mxPoint x="840" y="200" />
              <mxPoint x="861" y="159" />
              <mxPoint x="871" y="159" />
              <mxPoint x="861" y="149" />
              <mxPoint x="341" y="159" />
            </Array>
            <mxPoint x="915" y="190" as="targetPoint" />
            <mxPoint as="offset" />
          </mxGeometry>
        </mxCell>
        <mxCell id="HNETgIzHI6axtzU-nUiD-8" value="ACK" style="html=1;verticalAlign=bottom;endArrow=block;edgeStyle=elbowEdgeStyle;elbow=vertical;curved=0;rounded=0;" edge="1" parent="HNETgIzHI6axtzU-nUiD-1">
          <mxGeometry x="0.0032" relative="1" as="geometry">
            <mxPoint x="915" y="230" as="sourcePoint" />
            <Array as="points">
              <mxPoint x="850" y="230" />
              <mxPoint x="870" y="220" />
              <mxPoint x="340" y="250" />
            </Array>
            <mxPoint x="745" y="230" as="targetPoint" />
            <mxPoint as="offset" />
          </mxGeometry>
        </mxCell>
        <mxCell id="HNETgIzHI6axtzU-nUiD-9" value="Ant Media Server" style="shape=umlLifeline;perimeter=lifelinePerimeter;whiteSpace=wrap;html=1;container=0;dropTarget=0;collapsible=0;recursiveResize=0;outlineConnect=0;portConstraint=eastwest;newEdgeStyle={&quot;edgeStyle&quot;:&quot;elbowEdgeStyle&quot;,&quot;elbow&quot;:&quot;vertical&quot;,&quot;curved&quot;:0,&quot;rounded&quot;:0};" vertex="1" parent="HNETgIzHI6axtzU-nUiD-1">
          <mxGeometry x="80" y="40" width="100" height="770" as="geometry" />
        </mxCell>
        <mxCell id="HNETgIzHI6axtzU-nUiD-12" value="INVITE" style="html=1;verticalAlign=bottom;endArrow=block;edgeStyle=elbowEdgeStyle;elbow=vertical;curved=0;rounded=0;" edge="1" parent="HNETgIzHI6axtzU-nUiD-1" target="HNETgIzHI6axtzU-nUiD-18">
          <mxGeometry x="0.0032" relative="1" as="geometry">
            <mxPoint x="915" y="410" as="sourcePoint" />
            <Array as="points">
              <mxPoint x="680" y="410" />
              <mxPoint x="650" y="430" />
              <mxPoint x="600" y="340" />
              <mxPoint x="670" y="370" />
              <mxPoint x="920" y="310" />
              <mxPoint x="840" y="160" />
              <mxPoint x="340" y="130" />
            </Array>
            <mxPoint x="430" y="410" as="targetPoint" />
            <mxPoint as="offset" />
          </mxGeometry>
        </mxCell>
        <mxCell id="HNETgIzHI6axtzU-nUiD-15" value="RTP/RTCP" style="endArrow=classic;startArrow=classic;html=1;rounded=0;strokeColor=default;dashed=1;" edge="1" parent="HNETgIzHI6axtzU-nUiD-1">
          <mxGeometry width="50" height="50" relative="1" as="geometry">
            <mxPoint x="745" y="280" as="sourcePoint" />
            <mxPoint x="915" y="280" as="targetPoint" />
            <Array as="points">
              <mxPoint x="840" y="280" />
            </Array>
          </mxGeometry>
        </mxCell>
        <mxCell id="HNETgIzHI6axtzU-nUiD-16" value="Create SIP&lt;br&gt;/RTP sessions" style="shape=card;whiteSpace=wrap;html=1;" vertex="1" parent="HNETgIzHI6axtzU-nUiD-1">
          <mxGeometry x="335" y="380" width="80" height="100" as="geometry" />
        </mxCell>
        <mxCell id="HNETgIzHI6axtzU-nUiD-17" value="RTP/RTCP" style="endArrow=classic;startArrow=classic;html=1;rounded=0;strokeColor=default;dashed=1;" edge="1" parent="HNETgIzHI6axtzU-nUiD-1" source="HNETgIzHI6axtzU-nUiD-18" target="HNETgIzHI6axtzU-nUiD-4">
          <mxGeometry width="50" height="50" relative="1" as="geometry">
            <mxPoint x="430" y="790" as="sourcePoint" />
            <mxPoint x="900.5" y="790" as="targetPoint" />
            <Array as="points">
              <mxPoint x="675.5" y="790" />
            </Array>
          </mxGeometry>
        </mxCell>
        <mxCell id="HNETgIzHI6axtzU-nUiD-18" value="SIP/Streaming Converter Service" style="shape=umlLifeline;perimeter=lifelinePerimeter;whiteSpace=wrap;html=1;container=0;dropTarget=0;collapsible=0;recursiveResize=0;outlineConnect=0;portConstraint=eastwest;newEdgeStyle={&quot;edgeStyle&quot;:&quot;elbowEdgeStyle&quot;,&quot;elbow&quot;:&quot;vertical&quot;,&quot;curved&quot;:0,&quot;rounded&quot;:0};" vertex="1" parent="HNETgIzHI6axtzU-nUiD-1">
          <mxGeometry x="370" y="28" width="100" height="770" as="geometry" />
        </mxCell>
        <mxCell id="HNETgIzHI6axtzU-nUiD-20" value="Create Stream&lt;br&gt;POST https://{domain:port}/{application}/rest/v2/broadcasts/create?autoStart=false&lt;br&gt;{ &quot;type&quot;:&quot;streamSource&quot;, &quot;streamUrl&quot;:&quot;YOUR_STREAM_SOURCE_URL&quot;}" style="html=1;verticalAlign=bottom;endArrow=block;edgeStyle=elbowEdgeStyle;elbow=vertical;curved=0;rounded=0;" edge="1" parent="HNETgIzHI6axtzU-nUiD-1">
          <mxGeometry x="0.0032" relative="1" as="geometry">
            <mxPoint x="415.0000000000002" y="660" as="sourcePoint" />
            <Array as="points">
              <mxPoint x="290" y="660" />
              <mxPoint x="390" y="630" />
              <mxPoint x="360" y="650" />
              <mxPoint x="310" y="560" />
              <mxPoint x="380" y="590" />
              <mxPoint x="630" y="530" />
              <mxPoint x="550" y="380" />
              <mxPoint x="50" y="350" />
            </Array>
            <mxPoint x="135" y="660" as="targetPoint" />
            <mxPoint as="offset" />
          </mxGeometry>
        </mxCell>
        <mxCell id="HNETgIzHI6axtzU-nUiD-21" value="" style="endArrow=classic;html=1;rounded=0;strokeColor=default;" edge="1" parent="HNETgIzHI6axtzU-nUiD-1" source="HNETgIzHI6axtzU-nUiD-18" target="HNETgIzHI6axtzU-nUiD-4">
          <mxGeometry width="50" height="50" relative="1" as="geometry">
            <mxPoint x="425.0000000000002" y="440" as="sourcePoint" />
            <mxPoint x="720" y="440" as="targetPoint" />
            <Array as="points">
              <mxPoint x="580" y="440" />
              <mxPoint x="650" y="440" />
            </Array>
          </mxGeometry>
        </mxCell>
        <mxCell id="HNETgIzHI6axtzU-nUiD-22" value="200 OK" style="edgeLabel;html=1;align=center;verticalAlign=middle;resizable=0;points=[];" vertex="1" connectable="0" parent="HNETgIzHI6axtzU-nUiD-21">
          <mxGeometry x="0.0152" y="4" relative="1" as="geometry">
            <mxPoint y="-6" as="offset" />
          </mxGeometry>
        </mxCell>
        <mxCell id="HNETgIzHI6axtzU-nUiD-23" value="ACK" style="html=1;verticalAlign=bottom;endArrow=block;edgeStyle=elbowEdgeStyle;elbow=vertical;curved=0;rounded=0;" edge="1" parent="HNETgIzHI6axtzU-nUiD-1" target="HNETgIzHI6axtzU-nUiD-18">
          <mxGeometry x="0.0032" relative="1" as="geometry">
            <mxPoint x="915" y="480" as="sourcePoint" />
            <Array as="points">
              <mxPoint x="680" y="480" />
              <mxPoint x="650" y="500" />
              <mxPoint x="600" y="410" />
              <mxPoint x="670" y="440" />
              <mxPoint x="920" y="380" />
              <mxPoint x="840" y="230" />
              <mxPoint x="340" y="200" />
            </Array>
            <mxPoint x="450" y="480" as="targetPoint" />
            <mxPoint as="offset" />
          </mxGeometry>
        </mxCell>
        <mxCell id="HNETgIzHI6axtzU-nUiD-24" value="Stream" style="endArrow=classic;startArrow=classic;html=1;rounded=0;strokeColor=default;dashed=1;" edge="1" parent="HNETgIzHI6axtzU-nUiD-1">
          <mxGeometry x="-0.0035" width="50" height="50" relative="1" as="geometry">
            <mxPoint x="139.75" y="690" as="sourcePoint" />
            <mxPoint x="415.0000000000002" y="690" as="targetPoint" />
            <Array as="points">
              <mxPoint x="385.25" y="690" />
            </Array>
            <mxPoint as="offset" />
          </mxGeometry>
        </mxCell>
        <mxCell id="HNETgIzHI6axtzU-nUiD-25" value="Proxy live stream data to RTP session(ffmpeg lib)" style="shape=card;whiteSpace=wrap;html=1;" vertex="1" parent="HNETgIzHI6axtzU-nUiD-1">
          <mxGeometry x="335" y="700" width="80" height="100" as="geometry" />
        </mxCell>
        <mxCell id="HNETgIzHI6axtzU-nUiD-26" value="RTP/RTCP" style="endArrow=classic;startArrow=classic;html=1;rounded=0;strokeColor=default;dashed=1;" edge="1" parent="HNETgIzHI6axtzU-nUiD-1">
          <mxGeometry width="50" height="50" relative="1" as="geometry">
            <mxPoint x="430.00352941176465" y="490" as="sourcePoint" />
            <mxPoint x="925.68" y="490" as="targetPoint" />
            <Array as="points">
              <mxPoint x="686.18" y="490" />
              <mxPoint x="740.68" y="490" />
            </Array>
          </mxGeometry>
        </mxCell>
        <mxCell id="HNETgIzHI6axtzU-nUiD-30" value="Actor" style="shape=umlActor;verticalLabelPosition=bottom;verticalAlign=top;html=1;outlineConnect=0;" vertex="1" parent="HNETgIzHI6axtzU-nUiD-1">
          <mxGeometry x="930" y="90" width="30" height="60" as="geometry" />
        </mxCell>
        <mxCell id="XQzhbtL_lVbACgkgBYAD-0" value="REFER" style="html=1;verticalAlign=bottom;endArrow=block;edgeStyle=elbowEdgeStyle;elbow=vertical;curved=0;rounded=0;" edge="1" parent="HNETgIzHI6axtzU-nUiD-1" source="HNETgIzHI6axtzU-nUiD-2" target="HNETgIzHI6axtzU-nUiD-4">
          <mxGeometry x="0.0032" relative="1" as="geometry">
            <mxPoint x="1005" y="412" as="sourcePoint" />
            <Array as="points">
              <mxPoint x="850" y="330" />
              <mxPoint x="960" y="412" />
              <mxPoint x="920" y="432" />
              <mxPoint x="420" y="402" />
            </Array>
            <mxPoint x="840" y="460" as="targetPoint" />
            <mxPoint as="offset" />
          </mxGeometry>
        </mxCell>
        <mxCell id="XQzhbtL_lVbACgkgBYAD-1" value="202 ACCEPTED" style="html=1;verticalAlign=bottom;endArrow=block;edgeStyle=elbowEdgeStyle;elbow=vertical;curved=0;rounded=0;" edge="1" parent="HNETgIzHI6axtzU-nUiD-1" source="HNETgIzHI6axtzU-nUiD-4">
          <mxGeometry x="0.0588" relative="1" as="geometry">
            <mxPoint x="920" y="359" as="sourcePoint" />
            <Array as="points">
              <mxPoint x="860" y="350" />
              <mxPoint x="880" y="360" />
              <mxPoint x="780" y="370" />
              <mxPoint x="875" y="360" />
              <mxPoint x="835" y="380" />
              <mxPoint x="335" y="350" />
            </Array>
            <mxPoint x="745" y="350" as="targetPoint" />
            <mxPoint x="-1" as="offset" />
          </mxGeometry>
        </mxCell>
        <mxCell id="vf-F5an7gjwNnI28IK-H-0" value="" style="endArrow=classic;html=1;rounded=0;" edge="1" parent="HNETgIzHI6axtzU-nUiD-1">
          <mxGeometry width="50" height="50" relative="1" as="geometry">
            <mxPoint x="915" y="520" as="sourcePoint" />
            <mxPoint x="739.3235294117646" y="520" as="targetPoint" />
            <Array as="points">
              <mxPoint x="870" y="520" />
              <mxPoint x="830" y="520" />
            </Array>
          </mxGeometry>
        </mxCell>
        <mxCell id="vf-F5an7gjwNnI28IK-H-1" value="NOTIFY" style="edgeLabel;html=1;align=center;verticalAlign=middle;resizable=0;points=[];" vertex="1" connectable="0" parent="vf-F5an7gjwNnI28IK-H-0">
          <mxGeometry x="0.1934" y="2" relative="1" as="geometry">
            <mxPoint x="30" y="-12" as="offset" />
          </mxGeometry>
        </mxCell>
        <mxCell id="vf-F5an7gjwNnI28IK-H-2" value="200 OK" style="html=1;verticalAlign=bottom;endArrow=block;edgeStyle=elbowEdgeStyle;elbow=vertical;curved=0;rounded=0;" edge="1" parent="HNETgIzHI6axtzU-nUiD-1">
          <mxGeometry x="0.0032" relative="1" as="geometry">
            <mxPoint x="750" y="550" as="sourcePoint" />
            <Array as="points">
              <mxPoint x="865" y="550" />
              <mxPoint x="845" y="560" />
              <mxPoint x="866" y="519" />
              <mxPoint x="876" y="519" />
              <mxPoint x="866" y="509" />
              <mxPoint x="346" y="519" />
            </Array>
            <mxPoint x="920" y="550" as="targetPoint" />
            <mxPoint as="offset" />
          </mxGeometry>
        </mxCell>
        <mxCell id="vf-F5an7gjwNnI28IK-H-3" value="BYE" style="html=1;verticalAlign=bottom;endArrow=block;edgeStyle=elbowEdgeStyle;elbow=vertical;curved=0;rounded=0;" edge="1" parent="HNETgIzHI6axtzU-nUiD-1">
          <mxGeometry x="0.0032" relative="1" as="geometry">
            <mxPoint x="740" y="580" as="sourcePoint" />
            <Array as="points">
              <mxPoint x="851" y="580" />
              <mxPoint x="961" y="662" />
              <mxPoint x="921" y="682" />
              <mxPoint x="421" y="652" />
            </Array>
            <mxPoint x="921" y="580" as="targetPoint" />
            <mxPoint as="offset" />
          </mxGeometry>
        </mxCell>
        <mxCell id="vf-F5an7gjwNnI28IK-H-4" value="200 OK" style="html=1;verticalAlign=bottom;endArrow=block;edgeStyle=elbowEdgeStyle;elbow=vertical;curved=0;rounded=0;" edge="1" parent="HNETgIzHI6axtzU-nUiD-1">
          <mxGeometry x="-0.1429" relative="1" as="geometry">
            <mxPoint x="915" y="610" as="sourcePoint" />
            <Array as="points">
              <mxPoint x="855" y="610" />
              <mxPoint x="875" y="620" />
              <mxPoint x="775" y="630" />
              <mxPoint x="870" y="620" />
              <mxPoint x="830" y="640" />
              <mxPoint x="330" y="610" />
            </Array>
            <mxPoint x="740" y="610" as="targetPoint" />
            <mxPoint as="offset" />
          </mxGeometry>
        </mxCell>
      </root>
    </mxGraphModel>
  </diagram>
  <diagram name="Kopyası Kopyası Page-1" id="E65fTKjv-WSZYr5LDFdM">
    <mxGraphModel dx="1050" dy="491" grid="1" gridSize="10" guides="1" tooltips="1" connect="1" arrows="1" fold="1" page="1" pageScale="1" pageWidth="1169" pageHeight="827" math="0" shadow="0">
      <root>
        <mxCell id="hefCXwqj5WZnkLsfWtZ0-0" />
        <mxCell id="hefCXwqj5WZnkLsfWtZ0-1" parent="hefCXwqj5WZnkLsfWtZ0-0" />
        <mxCell id="hefCXwqj5WZnkLsfWtZ0-2" value="Call Center Server" style="shape=umlLifeline;perimeter=lifelinePerimeter;whiteSpace=wrap;html=1;container=0;dropTarget=0;collapsible=0;recursiveResize=0;outlineConnect=0;portConstraint=eastwest;newEdgeStyle={&quot;edgeStyle&quot;:&quot;elbowEdgeStyle&quot;,&quot;elbow&quot;:&quot;vertical&quot;,&quot;curved&quot;:0,&quot;rounded&quot;:0};" vertex="1" parent="hefCXwqj5WZnkLsfWtZ0-1">
          <mxGeometry x="690" y="40" width="100" height="770" as="geometry" />
        </mxCell>
        <mxCell id="hefCXwqj5WZnkLsfWtZ0-3" value="" style="html=1;points=[];perimeter=orthogonalPerimeter;outlineConnect=0;targetShapes=umlLifeline;portConstraint=eastwest;newEdgeStyle={&quot;edgeStyle&quot;:&quot;elbowEdgeStyle&quot;,&quot;elbow&quot;:&quot;vertical&quot;,&quot;curved&quot;:0,&quot;rounded&quot;:0};" vertex="1" parent="hefCXwqj5WZnkLsfWtZ0-2">
          <mxGeometry x="45" y="80" width="10" height="650" as="geometry" />
        </mxCell>
        <mxCell id="hefCXwqj5WZnkLsfWtZ0-4" value="Client" style="shape=umlLifeline;perimeter=lifelinePerimeter;whiteSpace=wrap;html=1;container=0;dropTarget=0;collapsible=0;recursiveResize=0;outlineConnect=0;portConstraint=eastwest;newEdgeStyle={&quot;edgeStyle&quot;:&quot;elbowEdgeStyle&quot;,&quot;elbow&quot;:&quot;vertical&quot;,&quot;curved&quot;:0,&quot;rounded&quot;:0};" vertex="1" parent="hefCXwqj5WZnkLsfWtZ0-1">
          <mxGeometry x="870" y="45" width="100" height="770" as="geometry" />
        </mxCell>
        <mxCell id="hefCXwqj5WZnkLsfWtZ0-5" value="" style="html=1;points=[];perimeter=orthogonalPerimeter;outlineConnect=0;targetShapes=umlLifeline;portConstraint=eastwest;newEdgeStyle={&quot;edgeStyle&quot;:&quot;elbowEdgeStyle&quot;,&quot;elbow&quot;:&quot;vertical&quot;,&quot;curved&quot;:0,&quot;rounded&quot;:0};" vertex="1" parent="hefCXwqj5WZnkLsfWtZ0-4">
          <mxGeometry x="45" y="80" width="10" height="650" as="geometry" />
        </mxCell>
        <mxCell id="hefCXwqj5WZnkLsfWtZ0-6" value="INVITE" style="html=1;verticalAlign=bottom;endArrow=block;edgeStyle=elbowEdgeStyle;elbow=vertical;curved=0;rounded=0;" edge="1" parent="hefCXwqj5WZnkLsfWtZ0-1" source="hefCXwqj5WZnkLsfWtZ0-5" target="hefCXwqj5WZnkLsfWtZ0-3">
          <mxGeometry x="0.0032" relative="1" as="geometry">
            <mxPoint x="245" y="140" as="sourcePoint" />
            <Array as="points">
              <mxPoint x="870" y="150" />
              <mxPoint x="830" y="170" />
              <mxPoint x="330" y="140" />
            </Array>
            <mxPoint x="760" y="130" as="targetPoint" />
            <mxPoint as="offset" />
          </mxGeometry>
        </mxCell>
        <mxCell id="hefCXwqj5WZnkLsfWtZ0-7" value="200 OK" style="html=1;verticalAlign=bottom;endArrow=block;edgeStyle=elbowEdgeStyle;elbow=vertical;curved=0;rounded=0;" edge="1" parent="hefCXwqj5WZnkLsfWtZ0-1" source="hefCXwqj5WZnkLsfWtZ0-3" target="hefCXwqj5WZnkLsfWtZ0-5">
          <mxGeometry x="0.0032" relative="1" as="geometry">
            <mxPoint x="750.5" y="199" as="sourcePoint" />
            <Array as="points">
              <mxPoint x="860" y="190" />
              <mxPoint x="840" y="200" />
              <mxPoint x="861" y="159" />
              <mxPoint x="871" y="159" />
              <mxPoint x="861" y="149" />
              <mxPoint x="341" y="159" />
            </Array>
            <mxPoint x="900" y="210" as="targetPoint" />
            <mxPoint as="offset" />
          </mxGeometry>
        </mxCell>
        <mxCell id="hefCXwqj5WZnkLsfWtZ0-8" value="ACK" style="html=1;verticalAlign=bottom;endArrow=block;edgeStyle=elbowEdgeStyle;elbow=vertical;curved=0;rounded=0;" edge="1" parent="hefCXwqj5WZnkLsfWtZ0-1" source="hefCXwqj5WZnkLsfWtZ0-5" target="hefCXwqj5WZnkLsfWtZ0-3">
          <mxGeometry x="0.0032" relative="1" as="geometry">
            <mxPoint x="900" y="240" as="sourcePoint" />
            <Array as="points">
              <mxPoint x="850" y="230" />
              <mxPoint x="870" y="220" />
              <mxPoint x="340" y="250" />
            </Array>
            <mxPoint x="770" y="240" as="targetPoint" />
            <mxPoint as="offset" />
          </mxGeometry>
        </mxCell>
        <mxCell id="hefCXwqj5WZnkLsfWtZ0-9" value="Ant Media Server" style="shape=umlLifeline;perimeter=lifelinePerimeter;whiteSpace=wrap;html=1;container=0;dropTarget=0;collapsible=0;recursiveResize=0;outlineConnect=0;portConstraint=eastwest;newEdgeStyle={&quot;edgeStyle&quot;:&quot;elbowEdgeStyle&quot;,&quot;elbow&quot;:&quot;vertical&quot;,&quot;curved&quot;:0,&quot;rounded&quot;:0};" vertex="1" parent="hefCXwqj5WZnkLsfWtZ0-1">
          <mxGeometry x="80" y="40" width="100" height="770" as="geometry" />
        </mxCell>
        <mxCell id="hefCXwqj5WZnkLsfWtZ0-10" value="" style="html=1;points=[];perimeter=orthogonalPerimeter;outlineConnect=0;targetShapes=umlLifeline;portConstraint=eastwest;newEdgeStyle={&quot;edgeStyle&quot;:&quot;elbowEdgeStyle&quot;,&quot;elbow&quot;:&quot;vertical&quot;,&quot;curved&quot;:0,&quot;rounded&quot;:0};" vertex="1" parent="hefCXwqj5WZnkLsfWtZ0-9">
          <mxGeometry x="45" y="160" width="10" height="540" as="geometry" />
        </mxCell>
        <mxCell id="hefCXwqj5WZnkLsfWtZ0-11" value="DTMF tones" style="html=1;verticalAlign=bottom;endArrow=block;edgeStyle=elbowEdgeStyle;elbow=vertical;curved=0;rounded=0;" edge="1" parent="hefCXwqj5WZnkLsfWtZ0-1" source="hefCXwqj5WZnkLsfWtZ0-5" target="hefCXwqj5WZnkLsfWtZ0-18">
          <mxGeometry x="0.0032" relative="1" as="geometry">
            <mxPoint x="900" y="370" as="sourcePoint" />
            <Array as="points">
              <mxPoint x="800" y="500" />
              <mxPoint x="870" y="490" />
              <mxPoint x="870" y="390" />
              <mxPoint x="835" y="390" />
              <mxPoint x="335" y="360" />
            </Array>
            <mxPoint x="760" y="370" as="targetPoint" />
            <mxPoint as="offset" />
          </mxGeometry>
        </mxCell>
        <mxCell id="hefCXwqj5WZnkLsfWtZ0-12" value="INVITE" style="html=1;verticalAlign=bottom;endArrow=block;edgeStyle=elbowEdgeStyle;elbow=vertical;curved=0;rounded=0;" edge="1" parent="hefCXwqj5WZnkLsfWtZ0-1" source="hefCXwqj5WZnkLsfWtZ0-5" target="hefCXwqj5WZnkLsfWtZ0-18">
          <mxGeometry x="0.0032" relative="1" as="geometry">
            <mxPoint x="720" y="410" as="sourcePoint" />
            <Array as="points">
              <mxPoint x="680" y="410" />
              <mxPoint x="650" y="430" />
              <mxPoint x="600" y="340" />
              <mxPoint x="670" y="370" />
              <mxPoint x="920" y="310" />
              <mxPoint x="840" y="160" />
              <mxPoint x="340" y="130" />
            </Array>
            <mxPoint x="430" y="410" as="targetPoint" />
            <mxPoint as="offset" />
          </mxGeometry>
        </mxCell>
        <mxCell id="hefCXwqj5WZnkLsfWtZ0-13" value="Synchronization of provisioned media tree or standalone configuration" style="shape=card;whiteSpace=wrap;html=1;" vertex="1" parent="hefCXwqj5WZnkLsfWtZ0-1">
          <mxGeometry x="335" y="270" width="80" height="100" as="geometry" />
        </mxCell>
        <mxCell id="hefCXwqj5WZnkLsfWtZ0-15" value="RTP/RTCP" style="endArrow=classic;startArrow=classic;html=1;rounded=0;strokeColor=default;dashed=1;" edge="1" parent="hefCXwqj5WZnkLsfWtZ0-1" source="hefCXwqj5WZnkLsfWtZ0-3" target="hefCXwqj5WZnkLsfWtZ0-5">
          <mxGeometry width="50" height="50" relative="1" as="geometry">
            <mxPoint x="760" y="280" as="sourcePoint" />
            <mxPoint x="900" y="280" as="targetPoint" />
            <Array as="points">
              <mxPoint x="840" y="280" />
            </Array>
          </mxGeometry>
        </mxCell>
        <mxCell id="hefCXwqj5WZnkLsfWtZ0-16" value="Create SIP&lt;br&gt;/RTP sessions" style="shape=card;whiteSpace=wrap;html=1;" vertex="1" parent="hefCXwqj5WZnkLsfWtZ0-1">
          <mxGeometry x="335" y="380" width="80" height="100" as="geometry" />
        </mxCell>
        <mxCell id="hefCXwqj5WZnkLsfWtZ0-17" value="RTP/RTCP" style="endArrow=classic;startArrow=classic;html=1;rounded=0;strokeColor=default;dashed=1;" edge="1" parent="hefCXwqj5WZnkLsfWtZ0-1" source="hefCXwqj5WZnkLsfWtZ0-18" target="hefCXwqj5WZnkLsfWtZ0-4">
          <mxGeometry width="50" height="50" relative="1" as="geometry">
            <mxPoint x="430" y="790" as="sourcePoint" />
            <mxPoint x="900.5" y="790" as="targetPoint" />
            <Array as="points">
              <mxPoint x="675.5" y="790" />
            </Array>
          </mxGeometry>
        </mxCell>
        <mxCell id="hefCXwqj5WZnkLsfWtZ0-18" value="SIP/Streaming Converter Service" style="shape=umlLifeline;perimeter=lifelinePerimeter;whiteSpace=wrap;html=1;container=0;dropTarget=0;collapsible=0;recursiveResize=0;outlineConnect=0;portConstraint=eastwest;newEdgeStyle={&quot;edgeStyle&quot;:&quot;elbowEdgeStyle&quot;,&quot;elbow&quot;:&quot;vertical&quot;,&quot;curved&quot;:0,&quot;rounded&quot;:0};" vertex="1" parent="hefCXwqj5WZnkLsfWtZ0-1">
          <mxGeometry x="370" y="28" width="100" height="770" as="geometry" />
        </mxCell>
        <mxCell id="hefCXwqj5WZnkLsfWtZ0-19" value="" style="html=1;points=[];perimeter=orthogonalPerimeter;outlineConnect=0;targetShapes=umlLifeline;portConstraint=eastwest;newEdgeStyle={&quot;edgeStyle&quot;:&quot;elbowEdgeStyle&quot;,&quot;elbow&quot;:&quot;vertical&quot;,&quot;curved&quot;:0,&quot;rounded&quot;:0};" vertex="1" parent="hefCXwqj5WZnkLsfWtZ0-18">
          <mxGeometry x="45" y="170" width="10" height="530" as="geometry" />
        </mxCell>
        <mxCell id="hefCXwqj5WZnkLsfWtZ0-20" value="Create Stream&lt;br&gt;POST https://{domain:port}/{application}/rest/v2/broadcasts/create?autoStart=false&lt;br&gt;{ &quot;type&quot;:&quot;streamSource&quot;, &quot;streamUrl&quot;:&quot;YOUR_STREAM_SOURCE_URL&quot;}" style="html=1;verticalAlign=bottom;endArrow=block;edgeStyle=elbowEdgeStyle;elbow=vertical;curved=0;rounded=0;" edge="1" parent="hefCXwqj5WZnkLsfWtZ0-1">
          <mxGeometry x="0.0032" relative="1" as="geometry">
            <mxPoint x="415.0000000000002" y="660" as="sourcePoint" />
            <Array as="points">
              <mxPoint x="290" y="660" />
              <mxPoint x="390" y="630" />
              <mxPoint x="360" y="650" />
              <mxPoint x="310" y="560" />
              <mxPoint x="380" y="590" />
              <mxPoint x="630" y="530" />
              <mxPoint x="550" y="380" />
              <mxPoint x="50" y="350" />
            </Array>
            <mxPoint x="135" y="660" as="targetPoint" />
            <mxPoint as="offset" />
          </mxGeometry>
        </mxCell>
        <mxCell id="hefCXwqj5WZnkLsfWtZ0-21" value="" style="endArrow=classic;html=1;rounded=0;strokeColor=default;" edge="1" parent="hefCXwqj5WZnkLsfWtZ0-1" source="hefCXwqj5WZnkLsfWtZ0-19" target="hefCXwqj5WZnkLsfWtZ0-4">
          <mxGeometry width="50" height="50" relative="1" as="geometry">
            <mxPoint x="425.0000000000002" y="440" as="sourcePoint" />
            <mxPoint x="720" y="440" as="targetPoint" />
            <Array as="points">
              <mxPoint x="650" y="440" />
            </Array>
          </mxGeometry>
        </mxCell>
        <mxCell id="hefCXwqj5WZnkLsfWtZ0-22" value="200 OK" style="edgeLabel;html=1;align=center;verticalAlign=middle;resizable=0;points=[];" vertex="1" connectable="0" parent="hefCXwqj5WZnkLsfWtZ0-21">
          <mxGeometry x="0.0152" y="4" relative="1" as="geometry">
            <mxPoint y="-6" as="offset" />
          </mxGeometry>
        </mxCell>
        <mxCell id="hefCXwqj5WZnkLsfWtZ0-23" value="ACK" style="html=1;verticalAlign=bottom;endArrow=block;edgeStyle=elbowEdgeStyle;elbow=vertical;curved=0;rounded=0;" edge="1" parent="hefCXwqj5WZnkLsfWtZ0-1" source="hefCXwqj5WZnkLsfWtZ0-5" target="hefCXwqj5WZnkLsfWtZ0-18">
          <mxGeometry x="0.0032" relative="1" as="geometry">
            <mxPoint x="720" y="480" as="sourcePoint" />
            <Array as="points">
              <mxPoint x="680" y="480" />
              <mxPoint x="650" y="500" />
              <mxPoint x="600" y="410" />
              <mxPoint x="670" y="440" />
              <mxPoint x="920" y="380" />
              <mxPoint x="840" y="230" />
              <mxPoint x="340" y="200" />
            </Array>
            <mxPoint x="450" y="480" as="targetPoint" />
            <mxPoint as="offset" />
          </mxGeometry>
        </mxCell>
        <mxCell id="hefCXwqj5WZnkLsfWtZ0-24" value="Stream" style="endArrow=classic;startArrow=classic;html=1;rounded=0;strokeColor=default;dashed=1;" edge="1" parent="hefCXwqj5WZnkLsfWtZ0-1">
          <mxGeometry x="-0.0035" width="50" height="50" relative="1" as="geometry">
            <mxPoint x="139.75" y="690" as="sourcePoint" />
            <mxPoint x="415.0000000000002" y="690" as="targetPoint" />
            <Array as="points">
              <mxPoint x="385.25" y="690" />
            </Array>
            <mxPoint as="offset" />
          </mxGeometry>
        </mxCell>
        <mxCell id="hefCXwqj5WZnkLsfWtZ0-25" value="Proxy live stream data to RTP session(ffmpeg lib)" style="shape=card;whiteSpace=wrap;html=1;" vertex="1" parent="hefCXwqj5WZnkLsfWtZ0-1">
          <mxGeometry x="335" y="700" width="80" height="100" as="geometry" />
        </mxCell>
        <mxCell id="hefCXwqj5WZnkLsfWtZ0-26" value="RTP/RTCP" style="endArrow=classic;startArrow=classic;html=1;rounded=0;strokeColor=default;dashed=1;" edge="1" parent="hefCXwqj5WZnkLsfWtZ0-1">
          <mxGeometry width="50" height="50" relative="1" as="geometry">
            <mxPoint x="419.32352941176464" y="530" as="sourcePoint" />
            <mxPoint x="915" y="530" as="targetPoint" />
            <Array as="points">
              <mxPoint x="675.5" y="530" />
              <mxPoint x="730" y="530" />
            </Array>
          </mxGeometry>
        </mxCell>
        <mxCell id="hefCXwqj5WZnkLsfWtZ0-27" value="NOTIFY DTMF Digits" style="html=1;verticalAlign=bottom;endArrow=block;edgeStyle=elbowEdgeStyle;elbow=vertical;curved=0;rounded=0;" edge="1" parent="hefCXwqj5WZnkLsfWtZ0-1" source="hefCXwqj5WZnkLsfWtZ0-3" target="hefCXwqj5WZnkLsfWtZ0-18">
          <mxGeometry x="0.0032" relative="1" as="geometry">
            <mxPoint x="720" y="550" as="sourcePoint" />
            <Array as="points">
              <mxPoint x="680" y="550" />
              <mxPoint x="650" y="570" />
              <mxPoint x="600" y="480" />
              <mxPoint x="670" y="510" />
              <mxPoint x="920" y="450" />
              <mxPoint x="840" y="300" />
              <mxPoint x="340" y="270" />
            </Array>
            <mxPoint x="450" y="550" as="targetPoint" />
            <mxPoint as="offset" />
          </mxGeometry>
        </mxCell>
        <mxCell id="hefCXwqj5WZnkLsfWtZ0-28" value="" style="endArrow=classic;html=1;rounded=0;strokeColor=default;" edge="1" parent="hefCXwqj5WZnkLsfWtZ0-1" source="hefCXwqj5WZnkLsfWtZ0-18" target="hefCXwqj5WZnkLsfWtZ0-3">
          <mxGeometry width="50" height="50" relative="1" as="geometry">
            <mxPoint x="450" y="580" as="sourcePoint" />
            <mxPoint x="720" y="580" as="targetPoint" />
            <Array as="points">
              <mxPoint x="650" y="580" />
            </Array>
          </mxGeometry>
        </mxCell>
        <mxCell id="hefCXwqj5WZnkLsfWtZ0-29" value="200 OK" style="edgeLabel;html=1;align=center;verticalAlign=middle;resizable=0;points=[];" vertex="1" connectable="0" parent="hefCXwqj5WZnkLsfWtZ0-28">
          <mxGeometry x="0.0152" y="4" relative="1" as="geometry">
            <mxPoint y="-6" as="offset" />
          </mxGeometry>
        </mxCell>
        <mxCell id="hefCXwqj5WZnkLsfWtZ0-30" value="Actor" style="shape=umlActor;verticalLabelPosition=bottom;verticalAlign=top;html=1;outlineConnect=0;" vertex="1" parent="hefCXwqj5WZnkLsfWtZ0-1">
          <mxGeometry x="930" y="90" width="30" height="60" as="geometry" />
        </mxCell>
        <mxCell id="hefCXwqj5WZnkLsfWtZ0-31" value="REFER" style="html=1;verticalAlign=bottom;endArrow=block;edgeStyle=elbowEdgeStyle;elbow=vertical;curved=0;rounded=0;" edge="1" parent="hefCXwqj5WZnkLsfWtZ0-1" source="hefCXwqj5WZnkLsfWtZ0-2" target="hefCXwqj5WZnkLsfWtZ0-4">
          <mxGeometry x="0.0032" relative="1" as="geometry">
            <mxPoint x="1005" y="412" as="sourcePoint" />
            <Array as="points">
              <mxPoint x="850" y="330" />
              <mxPoint x="960" y="412" />
              <mxPoint x="920" y="432" />
              <mxPoint x="420" y="402" />
            </Array>
            <mxPoint x="840" y="460" as="targetPoint" />
            <mxPoint as="offset" />
          </mxGeometry>
        </mxCell>
        <mxCell id="hefCXwqj5WZnkLsfWtZ0-32" value="200 OK" style="html=1;verticalAlign=bottom;endArrow=block;edgeStyle=elbowEdgeStyle;elbow=vertical;curved=0;rounded=0;" edge="1" parent="hefCXwqj5WZnkLsfWtZ0-1" source="hefCXwqj5WZnkLsfWtZ0-4" target="hefCXwqj5WZnkLsfWtZ0-3">
          <mxGeometry x="0.0588" relative="1" as="geometry">
            <mxPoint x="920" y="359" as="sourcePoint" />
            <Array as="points">
              <mxPoint x="860" y="350" />
              <mxPoint x="880" y="360" />
              <mxPoint x="780" y="370" />
              <mxPoint x="875" y="360" />
              <mxPoint x="835" y="380" />
              <mxPoint x="335" y="350" />
            </Array>
            <mxPoint x="790" y="360" as="targetPoint" />
            <mxPoint x="-1" as="offset" />
          </mxGeometry>
        </mxCell>
      </root>
    </mxGraphModel>
  </diagram>
  <diagram id="MEZlHmAkNhx1BPS7WCgJ" name="Sayfa -2">
    <mxGraphModel dx="1050" dy="540" grid="1" gridSize="10" guides="1" tooltips="1" connect="1" arrows="1" fold="1" page="1" pageScale="1" pageWidth="1100" pageHeight="850" math="0" shadow="0">
      <root>
        <mxCell id="0" />
        <mxCell id="1" parent="0" />
        <mxCell id="NC9fDQXiCX9eXR-Qifdj-3" value="" style="edgeStyle=orthogonalEdgeStyle;rounded=0;orthogonalLoop=1;jettySize=auto;html=1;strokeColor=default;" parent="1" source="NC9fDQXiCX9eXR-Qifdj-1" target="NC9fDQXiCX9eXR-Qifdj-2" edge="1">
          <mxGeometry relative="1" as="geometry" />
        </mxCell>
        <mxCell id="NC9fDQXiCX9eXR-Qifdj-1" value="SIP GW" style="text;html=1;align=center;verticalAlign=middle;resizable=0;points=[];autosize=1;strokeColor=none;fillColor=none;" parent="1" vertex="1">
          <mxGeometry x="60" y="40" width="70" height="30" as="geometry" />
        </mxCell>
        <mxCell id="NC9fDQXiCX9eXR-Qifdj-2" value="SIP/Streaming Converter Service&amp;nbsp;includes a SIP stack. It should handle basic call and NOTIFY message for DTMF Digits. It must save session state and DTMS digit sequence to route announcement flow as expected.&lt;br&gt;Below SIP stack can be used:&lt;br&gt;https://github.com/usnistgov/jsip&lt;br&gt;SIP/Streaming Converter Service may receive an INVITE message from Call Center. And would response 200 OK including new RTP session(created with ffmpeg lib) media information in SDP.&lt;br&gt;Call center may send SDP in INVITE or in ACK message. First of all service should find saved announcement playing state for this session (session information comes from INVITE headers: From, To, Session-Id).&lt;br&gt;If call state is found then external file URL is created for next announcement file. Ant-media server may use this URL to stream file back to service. And stream data may proxied to RTP session of agent.&amp;nbsp; &amp;nbsp;" style="whiteSpace=wrap;html=1;" parent="1" vertex="1">
          <mxGeometry x="230" y="100" width="400" height="220" as="geometry" />
        </mxCell>
      </root>
    </mxGraphModel>
  </diagram>
</mxfile>
